name ./resultDataOpenSim/trcMotMarkerGrf/sub06/grf-05-01.mot
datacolumns 19
datarows 30
range 1.06000000 1.17600000
endheader

                time	     ground_force_vx	     ground_force_vy	     ground_force_vz	     ground_force_px	     ground_force_py	     ground_force_pz	   l_ground_force_vx	   l_ground_force_vy	   l_ground_force_vz	   l_ground_force_px	   l_ground_force_py	   l_ground_force_pz	     ground_torque_x	     ground_torque_y	     ground_torque_z	   l_ground_torque_x	   l_ground_torque_y	   l_ground_torque_z	
          1.06000000	          0.00000000	          0.00000000	          0.00000000	          0.00000000	          0.00000000	          0.00000000	        152.31761390	        705.42677515	         11.29523679	          0.04476447	         -0.10000000	         -0.01388271	          0.00000000	          0.00000000	          0.00000000	          0.00000000	         -2.54917762	          0.00000000	
          1.06400000	          0.00000000	          0.00000000	          0.00000000	          0.00000000	          0.00000000	          0.00000000	        159.97008061	        708.20160081	         10.28749718	          0.04510992	         -0.10000000	         -0.01367022	          0.00000000	          0.00000000	          0.00000000	          0.00000000	         -2.51014700	          0.00000000	
          1.06800000	          0.00000000	          0.00000000	          0.00000000	          0.00000000	          0.00000000	          0.00000000	        167.23326497	        707.53566665	          9.29618173	          0.04542030	         -0.10000000	         -0.01349733	          0.00000000	          0.00000000	          0.00000000	          0.00000000	         -2.44240791	          0.00000000	
          1.07200000	          0.00000000	          0.00000000	          0.00000000	          0.00000000	          0.00000000	          0.00000000	        173.90194602	        703.19113404	          8.30782742	          0.04571846	         -0.10000000	         -0.01335232	          0.00000000	          0.00000000	          0.00000000	          0.00000000	         -2.35041600	          0.00000000	
          1.07600000	          0.00000000	          0.00000000	          0.00000000	          0.00000000	          0.00000000	          0.00000000	        179.75150373	        694.92784324	          7.28119860	          0.04603793	         -0.10000000	         -0.01322160	          0.00000000	          0.00000000	          0.00000000	          0.00000000	         -2.24038179	          0.00000000	
          1.08000000	        -18.92876161	         67.24598796	          0.41227152	          0.67819207	          0.00000000	          0.07191319	        184.52093964	        682.47647270	          6.15645864	          0.04639853	         -0.10000000	         -0.01309958	          0.00000000	          0.47294538	          0.00000000	          0.00000000	         -2.11886324	          0.00000000	
          1.08400000	        -27.92619602	        160.81076484	          9.11699798	          0.68162542	          0.00000000	          0.07003611	        187.91358817	        665.53731257	          4.89974857	          0.04680161	         -0.10000000	         -0.01299496	          0.00000000	          0.58344657	          0.00000000	          0.00000000	         -1.99156148	          0.00000000	
          1.08800000	        -35.43937752	        244.88968334	         17.78408128	          0.68453625	          0.00000000	          0.06856573	        189.63285748	        643.80245261	          3.54699524	          0.04727733	         -0.10000000	         -0.01290585	          0.00000000	          0.60408481	          0.00000000	          0.00000000	         -1.86267483	          0.00000000	
          1.09200000	        -40.80794871	        313.44410448	         25.96194010	          0.68624839	          0.00000000	          0.06788392	        189.42801512	        617.03097861	          2.18876612	          0.04787275	         -0.10000000	         -0.01282069	          0.00000000	          0.47820229	          0.00000000	          0.00000000	         -1.73485280	          0.00000000	
          1.09600000	        -44.25747329	        366.24678199	         32.84030280	          0.68662889	          0.00000000	          0.06816402	        187.09259949	        585.17931362	          0.90625140	          0.04859252	         -0.10000000	         -0.01274443	          0.00000000	          0.17355250	          0.00000000	          0.00000000	         -1.60956019	          0.00000000	
          1.10000000	        -46.76104630	        406.96583797	         37.60003277	          0.68704789	          0.00000000	          0.06900523	        182.41888018	        548.49976801	         -0.26431318	          0.04942105	         -0.10000000	         -0.01269672	          0.00000000	         -0.30020941	          0.00000000	          0.00000000	         -1.48755461	          0.00000000	
          1.10400000	        -50.02266279	        439.24631726	         39.70731397	          0.68932403	          0.00000000	          0.06992169	        175.20609907	        507.52364421	         -1.30944369	          0.05038109	         -0.10000000	         -0.01270070	          0.00000000	         -0.88110207	          0.00000000	          0.00000000	         -1.36919861	          0.00000000	
          1.10800000	        -55.93027669	        464.66338400	         38.98312908	          0.69347188	          0.00000000	          0.07096595	        165.35777440	        462.99790583	         -2.20477816	          0.05157458	         -0.10000000	         -0.01273512	          0.00000000	         -1.45960875	          0.00000000	          0.00000000	         -1.25455187	          0.00000000	
          1.11200000	        -65.62100967	        484.23181552	         35.64751379	          0.69830420	          0.00000000	          0.07240927	        152.97506195	        415.90795990	         -2.91099525	          0.05310864	         -0.10000000	         -0.01277909	          0.00000000	         -1.90229855	          0.00000000	          0.00000000	         -1.14345584	          0.00000000	
          1.11600000	        -79.33622103	        500.81248406	         30.30001120	          0.70296288	          0.00000000	          0.07418674	        138.38308976	        367.55476033	         -3.39253010	          0.05503972	         -0.10000000	         -0.01281827	          0.00000000	         -2.08991315	          0.00000000	          0.00000000	         -1.03577559	          0.00000000	
          1.12000000	        -97.06051974	        519.10782427	         23.69512342	          0.70779853	          0.00000000	          0.07591567	        122.11274829	        319.51773078	         -3.63686065	          0.05738150	         -0.10000000	         -0.01284177	          0.00000000	         -1.95760364	          0.00000000	          0.00000000	         -0.93168959	          0.00000000	
          1.12400000	       -118.61753448	        543.31485137	         16.53897891	          0.71359731	          0.00000000	          0.07722817	        104.87591215	        273.43118885	         -3.66601614	          0.06012250	         -0.10000000	         -0.01284111	          0.00000000	         -1.52152992	          0.00000000	          0.00000000	         -0.83183098	          0.00000000	
          1.12800000	       -142.94630749	        574.97704568	          9.49187340	          0.72014927	          0.00000000	          0.07803287	         87.54618633	        230.67724829	         -3.53187994	          0.06321404	         -0.10000000	         -0.01282420	          0.00000000	         -0.87977415	          0.00000000	          0.00000000	         -0.73722404	          0.00000000	
          1.13200000	       -167.83996333	        612.81023488	          3.22192132	          0.72623262	          0.00000000	          0.07850358	         71.10049781	        192.14237558	         -3.29157865	          0.06651586	         -0.10000000	         -0.01279764	          0.00000000	         -0.18600748	          0.00000000	          0.00000000	         -0.64905762	          0.00000000	
          1.13600000	       -190.83992809	        654.18048863	         -1.61379866	          0.73088541	          0.00000000	          0.07884240	         56.45263980	        158.13554630	         -2.97598553	          0.06979911	         -0.10000000	         -0.01274878	          0.00000000	          0.39365775	          0.00000000	          0.00000000	         -0.56834672	          0.00000000	
          1.14000000	       -210.33073219	        696.71523769	         -4.43336513	          0.73417167	          0.00000000	          0.07909569	         44.20112608	        128.49206263	         -2.57325934	          0.07279043	         -0.10000000	         -0.01265191	          0.00000000	          0.72410624	          0.00000000	          0.00000000	         -0.49559724	          0.00000000	
          1.14400000	       -225.72256829	        738.84168076	         -4.83641330	          0.73677477	          0.00000000	          0.07918519	         34.45305435	        102.79533481	         -2.04798856	          0.07533839	         -0.10000000	         -0.01246389	          0.00000000	          0.73095111	          0.00000000	          0.00000000	         -0.43064722	          0.00000000	
          1.14800000	       -236.91532568	        779.28565066	         -2.74853226	          0.73914112	          0.00000000	          0.07906463	         26.86667999	         80.60574299	         -1.38337636	          0.07750530	         -0.10000000	         -0.01210927	          0.00000000	          0.41030457	          0.00000000	          0.00000000	         -0.37273264	          0.00000000	
          1.15200000	       -243.99068449	        816.55139180	          1.46633801	          0.74115786	          0.00000000	          0.07881004	         20.86323466	         61.58631163	         -0.60070716	          0.07973427	         -0.10000000	         -0.01132422	          0.00000000	         -0.17941050	          0.00000000	          0.00000000	         -0.32064344	          0.00000000	
          1.15600000	       -247.43102166	        849.19879545	          7.00106423	          0.74255297	          0.00000000	          0.07856177	         15.85092589	         45.47302798	          0.25914966	          0.08283062	         -0.10000000	         -0.00950401	          0.00000000	         -0.93611709	          0.00000000	          0.00000000	         -0.27288754	          0.00000000	
          1.16000000	       -248.30145786	        876.63646575	         12.74478941	          0.74336797	          0.00000000	          0.07840096	         11.37109129	         31.95231601	          1.15659771	          0.08801888	         -0.10000000	         -0.00556754	          0.00000000	         -1.73500625	          0.00000000	          0.00000000	         -0.22797745	          0.00000000	
          1.16400000	       -247.93617981	        899.45121936	         17.55010652	          0.74393624	          0.00000000	          0.07830392	          7.15619495	         20.56889919	          2.05472878	          0.09789902	         -0.10000000	          0.00256562	          0.00000000	         -2.44742124	          0.00000000	          0.00000000	         -0.18492991	          0.00000000	
          1.16800000	       -247.37967393	        918.81396688	         20.53002674	          0.74450948	          0.00000000	          0.07821506	          3.11785691	         10.76166502	          2.91870019	          0.11830215	         -0.10000000	          0.01922424	          0.00000000	         -2.95853017	          0.00000000	          0.00000000	         -0.14377546	          0.00000000	
          1.17200000	       -247.08493823	        935.57954336	         21.24932920	          0.74504058	          0.00000000	          0.07813226	          0.00000000	          0.00000000	          0.00000000	          0.00000000	          0.00000000	          0.00000000	          0.00000000	         -3.18624811	          0.00000000	          0.00000000	          0.00000000	          0.00000000	
          1.17600000	       -246.97049643	        949.97456313	         19.74743828	          0.74534700	          0.00000000	          0.07810208	          0.00000000	          0.00000000	          0.00000000	          0.00000000	          0.00000000	          0.00000000	          0.00000000	         -3.10013979	          0.00000000	          0.00000000	          0.00000000	          0.00000000	
